<svg id="visual" viewBox="0 0 1920 1080" width="1920" height="1080" xmlns="http://www.w3.org/2000/svg" xmlns:xlink="http://www.w3.org/1999/xlink" version="1.1"><g stroke-width="1" stroke-linejoin="bevel"><path d="M1026.7 573L876.3 709L1058.7 720Z" fill="#253948" stroke="#253948"></path><path d="M1026.7 573L825.3 569L876.3 709Z" fill="#2c414f" stroke="#2c414f"></path><path d="M605 749L843.3 880L876.3 709Z" fill="#293d4b" stroke="#293d4b"></path><path d="M876.3 709L843.3 880L1058.7 720Z" fill="#253948" stroke="#253948"></path><path d="M843.3 880L1074.7 905L1058.7 720Z" fill="#0f212e" stroke="#0f212e"></path><path d="M1257 902L1257 684L1058.7 720Z" fill="#152835" stroke="#152835"></path><path d="M1058.7 720L1257 684L1026.7 573Z" fill="#192b39" stroke="#192b39"></path><path d="M1289 561L1055.7 363L1026.7 573Z" fill="#1c2f3c" stroke="#1c2f3c"></path><path d="M1026.7 573L859.3 344L825.3 569Z" fill="#223644" stroke="#223644"></path><path d="M1257 684L1289 561L1026.7 573Z" fill="#1c2f3c" stroke="#1c2f3c"></path><path d="M1055.7 363L859.3 344L1026.7 573Z" fill="#152835" stroke="#152835"></path><path d="M1074.7 905L1257 902L1058.7 720Z" fill="#253948" stroke="#253948"></path><path d="M1257 684L1468.3 565L1289 561Z" fill="#293d4b" stroke="#293d4b"></path><path d="M859.3 344L633 500L825.3 569Z" fill="#192b39" stroke="#192b39"></path><path d="M825.3 569L605 749L876.3 709Z" fill="#2c414f" stroke="#2c414f"></path><path d="M633 500L605 749L825.3 569Z" fill="#2f4553" stroke="#2f4553"></path><path d="M605 749L648 933L843.3 880Z" fill="#192b39" stroke="#192b39"></path><path d="M843.3 880L1050.7 1080L1074.7 905Z" fill="#192b39" stroke="#192b39"></path><path d="M1074.7 905L1247 1080L1257 902Z" fill="#293d4b" stroke="#293d4b"></path><path d="M821.3 1080L1050.7 1080L843.3 880Z" fill="#1c2f3c" stroke="#1c2f3c"></path><path d="M1468.3 565L1306 381L1289 561Z" fill="#2c414f" stroke="#2c414f"></path><path d="M1289 561L1306 381L1055.7 363Z" fill="#223644" stroke="#223644"></path><path d="M1055.7 363L1027.7 199L859.3 344Z" fill="#192b39" stroke="#192b39"></path><path d="M648 933L821.3 1080L843.3 880Z" fill="#0f212e" stroke="#0f212e"></path><path d="M859.3 344L600 394L633 500Z" fill="#223644" stroke="#223644"></path><path d="M633 500L457.7 504L605 749Z" fill="#293d4b" stroke="#293d4b"></path><path d="M1282 184L1027.7 199L1055.7 363Z" fill="#293d4b" stroke="#293d4b"></path><path d="M859.3 344L619 179L600 394Z" fill="#293d4b" stroke="#293d4b"></path><path d="M1027.7 199L847.3 192L859.3 344Z" fill="#152835" stroke="#152835"></path><path d="M1050.7 1080L1247 1080L1074.7 905Z" fill="#253948" stroke="#253948"></path><path d="M1487.3 737L1468.3 565L1257 684Z" fill="#2f4553" stroke="#2f4553"></path><path d="M1487.3 737L1257 684L1257 902Z" fill="#223644" stroke="#223644"></path><path d="M1521.3 910L1487.3 737L1257 902Z" fill="#223644" stroke="#223644"></path><path d="M450.7 331L457.7 504L600 394Z" fill="#122432" stroke="#122432"></path><path d="M600 394L457.7 504L633 500Z" fill="#152835" stroke="#152835"></path><path d="M605 749L460.7 880L648 933Z" fill="#1f3240" stroke="#1f3240"></path><path d="M415.7 701L460.7 880L605 749Z" fill="#293d4b" stroke="#293d4b"></path><path d="M648 933L606 1080L821.3 1080Z" fill="#2f4553" stroke="#2f4553"></path><path d="M460.7 880L606 1080L648 933Z" fill="#2c414f" stroke="#2c414f"></path><path d="M457.7 504L415.7 701L605 749Z" fill="#253948" stroke="#253948"></path><path d="M1502.3 356L1282 184L1306 381Z" fill="#223644" stroke="#223644"></path><path d="M1306 381L1282 184L1055.7 363Z" fill="#253948" stroke="#253948"></path><path d="M1027.7 199L1035.7 0L847.3 192Z" fill="#122432" stroke="#122432"></path><path d="M835.3 0L619 179L847.3 192Z" fill="#0f212e" stroke="#0f212e"></path><path d="M847.3 192L619 179L859.3 344Z" fill="#253948" stroke="#253948"></path><path d="M1477.3 1080L1521.3 910L1257 902Z" fill="#2f4553" stroke="#2f4553"></path><path d="M1666.7 384L1502.3 356L1468.3 565Z" fill="#2c414f" stroke="#2c414f"></path><path d="M1468.3 565L1502.3 356L1306 381Z" fill="#1c2f3c" stroke="#1c2f3c"></path><path d="M1684.7 560L1468.3 565L1487.3 737Z" fill="#192b39" stroke="#192b39"></path><path d="M619 179L450.7 331L600 394Z" fill="#223644" stroke="#223644"></path><path d="M225.3 570L249.3 691L415.7 701Z" fill="#122432" stroke="#122432"></path><path d="M1247 1080L1477.3 1080L1257 902Z" fill="#1c2f3c" stroke="#1c2f3c"></path><path d="M1282 184L1035.7 0L1027.7 199Z" fill="#122432" stroke="#122432"></path><path d="M460.7 880L452.7 1080L606 1080Z" fill="#223644" stroke="#223644"></path><path d="M196.3 890L452.7 1080L460.7 880Z" fill="#293d4b" stroke="#293d4b"></path><path d="M1035.7 0L835.3 0L847.3 192Z" fill="#2f4553" stroke="#2f4553"></path><path d="M1669.7 861L1487.3 737L1521.3 910Z" fill="#2c414f" stroke="#2c414f"></path><path d="M1669.7 861L1688.7 715L1487.3 737Z" fill="#2c414f" stroke="#2c414f"></path><path d="M1688.7 715L1684.7 560L1487.3 737Z" fill="#223644" stroke="#223644"></path><path d="M225.3 570L415.7 701L457.7 504Z" fill="#152835" stroke="#152835"></path><path d="M415.7 701L196.3 890L460.7 880Z" fill="#192b39" stroke="#192b39"></path><path d="M1502.3 356L1496.3 163L1282 184Z" fill="#152835" stroke="#152835"></path><path d="M1282 184L1296 0L1035.7 0Z" fill="#152835" stroke="#152835"></path><path d="M1666.7 384L1496.3 163L1502.3 356Z" fill="#1f3240" stroke="#1f3240"></path><path d="M1740.7 1080L1669.7 861L1521.3 910Z" fill="#253948" stroke="#253948"></path><path d="M1496.3 163L1296 0L1282 184Z" fill="#2c414f" stroke="#2c414f"></path><path d="M423.7 0L390.7 196L619 179Z" fill="#223644" stroke="#223644"></path><path d="M619 179L390.7 196L450.7 331Z" fill="#0f212e" stroke="#0f212e"></path><path d="M191.3 335L225.3 570L457.7 504Z" fill="#253948" stroke="#253948"></path><path d="M1684.7 560L1666.7 384L1468.3 565Z" fill="#122432" stroke="#122432"></path><path d="M191.3 335L457.7 504L450.7 331Z" fill="#192b39" stroke="#192b39"></path><path d="M835.3 0L601 0L619 179Z" fill="#253948" stroke="#253948"></path><path d="M0 711L196.3 890L249.3 691Z" fill="#122432" stroke="#122432"></path><path d="M249.3 691L196.3 890L415.7 701Z" fill="#1f3240" stroke="#1f3240"></path><path d="M1698.7 0L1495.3 0L1496.3 163Z" fill="#192b39" stroke="#192b39"></path><path d="M1496.3 163L1495.3 0L1296 0Z" fill="#1c2f3c" stroke="#1c2f3c"></path><path d="M390.7 196L191.3 335L450.7 331Z" fill="#1c2f3c" stroke="#1c2f3c"></path><path d="M225.3 570L0 711L249.3 691Z" fill="#1c2f3c" stroke="#1c2f3c"></path><path d="M191.3 185L191.3 335L390.7 196Z" fill="#2f4553" stroke="#2f4553"></path><path d="M601 0L423.7 0L619 179Z" fill="#152835" stroke="#152835"></path><path d="M1477.3 1080L1740.7 1080L1521.3 910Z" fill="#2c414f" stroke="#2c414f"></path><path d="M1920 862L1920 721L1688.7 715Z" fill="#0f212e" stroke="#0f212e"></path><path d="M1920 385L1666.7 384L1684.7 560Z" fill="#192b39" stroke="#192b39"></path><path d="M1920 385L1743.7 174L1666.7 384Z" fill="#152835" stroke="#152835"></path><path d="M0 1080L173.3 1080L196.3 890Z" fill="#122432" stroke="#122432"></path><path d="M196.3 890L173.3 1080L452.7 1080Z" fill="#2f4553" stroke="#2f4553"></path><path d="M243.3 0L191.3 185L390.7 196Z" fill="#1f3240" stroke="#1f3240"></path><path d="M0 564L0 711L225.3 570Z" fill="#152835" stroke="#152835"></path><path d="M1920 721L1684.7 560L1688.7 715Z" fill="#1c2f3c" stroke="#1c2f3c"></path><path d="M1666.7 384L1743.7 174L1496.3 163Z" fill="#1c2f3c" stroke="#1c2f3c"></path><path d="M1920 862L1688.7 715L1669.7 861Z" fill="#253948" stroke="#253948"></path><path d="M1920 721L1920 535L1684.7 560Z" fill="#2f4553" stroke="#2f4553"></path><path d="M1740.7 1080L1920 862L1669.7 861Z" fill="#0f212e" stroke="#0f212e"></path><path d="M0 564L225.3 570L0 399Z" fill="#122432" stroke="#122432"></path><path d="M0 399L225.3 570L191.3 335Z" fill="#152835" stroke="#152835"></path><path d="M423.7 0L243.3 0L390.7 196Z" fill="#1c2f3c" stroke="#1c2f3c"></path><path d="M0 142L0 399L191.3 335Z" fill="#1f3240" stroke="#1f3240"></path><path d="M1920 0L1698.7 0L1743.7 174Z" fill="#2c414f" stroke="#2c414f"></path><path d="M1743.7 174L1698.7 0L1496.3 163Z" fill="#1f3240" stroke="#1f3240"></path><path d="M1920 535L1920 385L1684.7 560Z" fill="#192b39" stroke="#192b39"></path><path d="M0 711L0 862L196.3 890Z" fill="#152835" stroke="#152835"></path><path d="M0 142L191.3 335L191.3 185Z" fill="#122432" stroke="#122432"></path><path d="M1740.7 1080L1920 1080L1920 862Z" fill="#2c414f" stroke="#2c414f"></path><path d="M0 862L0 1080L196.3 890Z" fill="#293d4b" stroke="#293d4b"></path><path d="M1920 385L1920 169L1743.7 174Z" fill="#1c2f3c" stroke="#1c2f3c"></path><path d="M0 0L0 142L191.3 185Z" fill="#192b39" stroke="#192b39"></path><path d="M1920 169L1920 0L1743.7 174Z" fill="#223644" stroke="#223644"></path><path d="M243.3 0L0 0L191.3 185Z" fill="#122432" stroke="#122432"></path></g></svg>